<svg width="48" height="48" viewBox="0 0 48 48" fill="none" xmlns="http://www.w3.org/2000/svg">
<mask id="mask0" mask-type="alpha" maskUnits="userSpaceOnUse" x="0" y="0" width="48" height="48">
<rect width="48" height="48" rx="15" fill="#D4A181"/>
</mask>
<g mask="url(#mask0)">
<rect x="-4" y="-2" width="58" height="50" fill="#0525F7"/>
<path fill-rule="evenodd" clip-rule="evenodd" d="M27.6014 20.1947C26.5443 17.9717 26.0964 15.4734 26.9407 13.033C29.3735 6.00156 38.9361 10.2409 39.905 14.3756C40.8738 18.5102 38.1729 27.6225 35.4881 27.5994C34.4174 27.5902 32.4544 26.39 30.6354 24.5042L29.4054 34.4961L21.3596 32.3507L27.6014 20.1947Z" fill="#D4A181"/>
<path fill-rule="evenodd" clip-rule="evenodd" d="M30.5137 20.4345C29.0003 22.0814 27.2316 23.1537 25.8519 22.7856C23.2313 22.0864 22.3091 18.0917 23.321 14.3312C23.3565 14.1991 23.3945 14.0685 23.4347 13.9397C20.1515 15.099 17.0078 18.2721 13.3398 17.2934C8.34946 15.9619 9.07134 5.38527 16.0435 7.24555C20.7852 8.51068 22.9318 9.8231 24.6673 11.3799C25.364 10.37 26.2209 9.59331 27.1364 9.13549C27.368 8.9831 27.692 8.86465 28.0915 8.78125C28.3381 8.72119 28.5864 8.68491 28.8344 8.67394C30.1663 8.55269 32.0066 8.70751 33.9863 9.16245C34.356 9.2474 34.7167 9.33964 35.0663 9.43797C35.5685 7.5946 37.4704 6.501 39.3199 6.99447C41.1729 7.48888 42.2715 9.3892 41.7738 11.239C41.2924 13.0278 39.4943 14.1143 37.7004 13.7367C36.6049 13.7784 35.2435 13.6603 33.7761 13.3722C33.7747 13.9349 33.6901 14.5521 33.5086 15.2266C33.3484 15.8221 33.1126 16.4361 32.8188 17.0451C32.6059 16.5907 32.253 16.2371 31.8287 16.1239C30.6418 15.8072 29.5534 16.5615 29.2749 17.5964C28.9215 18.9098 29.4254 20.0626 30.5137 20.4345Z" fill="#191847"/>
<path fill-rule="evenodd" clip-rule="evenodd" d="M35.9515 43.4965L48.9754 39.0901C51.3646 37.0965 53.6321 35.6206 55.7779 34.6622C56.4068 34.521 57.457 34.553 56.1988 36.0813C54.9405 37.6097 53.6859 39.2736 54.0812 39.8819C54.4765 40.4901 55.8225 39.9736 56.2508 40.9441C56.5362 41.5911 54.2957 42.1408 49.529 42.5932L39.5043 48.9629L35.9515 43.4965ZM53.5784 52.2362L59.3008 50.2921C60.525 47.6414 61.6476 46.3967 62.6685 46.5579C63.5147 46.332 61.5309 49.6047 63.0671 49.5603C64.6033 49.5159 68.6967 47.4656 69.2235 48.1202C70.0028 49.0887 68.7417 51.421 67.5546 52.483C65.3359 54.4678 63.6971 54.9921 59.8088 55.3729C57.7757 55.5721 55.4895 56.2851 52.95 57.512L53.5784 52.2362Z" fill="#D4A181"/>
<path fill-rule="evenodd" clip-rule="evenodd" d="M30.4214 41.0288C34.5881 41.7151 40.2894 41.8118 46.8711 39.1006L48.2788 44.6827C43.4808 48.0103 37.1529 50.3255 32.1594 49.3037C28.2242 48.4985 27.0487 43.3678 30.4214 41.0288Z" fill="#69A1AC"/>
<path fill-rule="evenodd" clip-rule="evenodd" d="M34.5556 50.3025C38.776 52.1761 46.4092 52.1796 57.4554 50.3129C59.0902 56.0872 59.6097 60.0904 59.0136 62.3226C49.2752 65.4054 41.2671 66.1365 34.9477 65.1685C34.4873 68.9313 33.4043 72.3984 31.3028 75.3713C26.9824 81.4832 9.68966 72.0861 3.29256 72.2157C1.64411 58.9896 10.0328 55.2043 11.4611 47.1772C13.0253 38.3867 22.4966 26.0957 23.5373 26.2783L33.0286 27.944C32.3627 34.7502 33.6876 42.6125 34.5556 50.3025Z" fill="#89C5CC"/>
</g>
</svg>
